<svg width="48" height="48" viewBox="0 0 48 48" fill="none" xmlns="http://www.w3.org/2000/svg">
<rect width="48" height="48" fill="white"/>
<path d="M33.816 37.6331H33.253L33.25 37.6151L33.234 37.5461C33.2239 37.5013 33.2133 37.4566 33.202 37.4121L33.187 37.3491C33.1726 37.29 33.1576 37.231 33.142 37.1721L33.137 37.1561C33.1194 37.0925 33.1011 37.0292 33.082 36.9661L33.064 36.9041L33.024 36.7751L33.001 36.7051C32.9871 36.6636 32.9728 36.6223 32.958 36.5811L32.936 36.5161C32.9176 36.4646 32.8986 36.4132 32.879 36.3621L32.867 36.3301C32.8438 36.2698 32.8198 36.2098 32.795 36.1501L32.768 36.0861L32.718 35.9691L32.686 35.8971C32.6588 35.8357 32.6308 35.7747 32.602 35.7141C32.582 35.6711 32.563 35.6291 32.541 35.5861L32.516 35.5371C32.4882 35.4813 32.4595 35.426 32.43 35.3711L32.39 35.3011L32.335 35.2001L32.292 35.1251L32.237 35.0311C32.2225 35.0058 32.2075 34.9808 32.192 34.9561C32.172 34.9221 32.152 34.8881 32.13 34.8551L32.074 34.7631L31.992 34.6381C31.9749 34.612 31.9576 34.586 31.94 34.5601L31.884 34.4771C31.864 34.4501 31.844 34.4221 31.827 34.3951C31.8098 34.3696 31.7915 34.3449 31.772 34.3211C31.753 34.2971 31.732 34.2661 31.712 34.2381L31.657 34.1631C31.617 34.1131 31.581 34.0631 31.542 34.0131L31.488 33.9451L31.418 33.8601L31.366 33.7971C31.342 33.7671 31.318 33.7391 31.293 33.7111L31.242 33.6511L31.165 33.5651L31.12 33.5151C31.0256 33.411 30.9289 33.3089 30.83 33.2091L30.786 33.1651L30.696 33.0771L30.651 33.0341C30.6196 33.0038 30.5879 32.9738 30.556 32.9441L30.523 32.9141C30.4115 32.811 30.2971 32.7109 30.18 32.6141L30.148 32.5881C30.1116 32.5584 30.075 32.5291 30.038 32.5001L30.002 32.4701C29.962 32.4401 29.927 32.4101 29.889 32.3811L29.869 32.3671C29.74 32.2671 29.608 32.1721 29.474 32.0791L29.456 32.0661C29.4139 32.0374 29.3716 32.0091 29.329 31.9811L29.301 31.9631C29.257 31.9331 29.214 31.9061 29.17 31.8781L29.162 31.8731C29.0164 31.7808 28.8684 31.6924 28.718 31.6081L28.712 31.6051C28.6645 31.5788 28.6168 31.5528 28.569 31.5271L28.548 31.5151C28.2928 31.3787 28.0315 31.2539 27.765 31.1411L27.748 31.1341C27.6774 31.1042 27.6064 31.0752 27.535 31.0471H28.947C29.177 31.0471 29.364 30.7961 29.364 30.4851C29.364 30.1751 29.178 29.9251 28.947 29.9251H28.527L28.613 29.7101C29.011 29.4751 29.711 28.9741 30.406 28.0541L30.411 28.0471C30.464 27.9781 30.516 27.9071 30.566 27.8341L30.576 27.8191C30.627 27.7471 30.678 27.6721 30.727 27.5941L30.741 27.5741L30.811 27.4611C30.811 27.4611 30.811 27.4591 30.815 27.4571L30.887 27.3381L30.903 27.3121L30.964 27.2071L30.976 27.1871L31.046 27.0641L31.061 27.0361C31.1094 26.9495 31.1557 26.8618 31.2 26.7731L31.215 26.7431L31.267 26.6361L31.287 26.5981L31.35 26.4641L31.363 26.4351L31.413 26.3231L31.434 26.2781C31.4765 26.182 31.5168 26.085 31.555 25.9871L31.575 25.9371L31.623 25.8131L31.635 25.7821L31.69 25.6321L31.709 25.5791L31.751 25.4591L31.766 25.4141C31.7893 25.3436 31.812 25.273 31.834 25.2021L31.874 25.0791C31.879 25.0611 31.884 25.0411 31.89 25.0251C31.9247 24.9094 31.957 24.7931 31.987 24.6761L32.003 24.6161C32.017 24.5591 32.033 24.5011 32.046 24.4421L32.058 24.3931L32.091 24.2521L32.105 24.1881C32.1333 24.0608 32.1596 23.9332 32.184 23.8051L32.197 23.7391L32.227 23.5701L32.233 23.5351L32.265 23.3361C32.2769 23.2589 32.2882 23.1815 32.299 23.1041L32.307 23.0541L32.334 22.8441L32.342 22.7781C32.3517 22.7022 32.3604 22.6262 32.368 22.5501L32.388 22.3301C32.388 22.3101 32.392 22.2901 32.394 22.2691L32.409 22.0901C32.409 22.0681 32.412 22.0461 32.414 22.0241L32.429 21.7941C32.429 21.7761 32.429 21.7561 32.432 21.7401L32.442 21.5461C32.442 21.5221 32.442 21.4991 32.445 21.4761L32.454 21.2321V21.1971L32.458 20.9771V20.3071C32.458 20.2321 32.455 20.1541 32.453 20.0761V20.0331C32.451 19.9431 32.447 19.8531 32.443 19.7621L32.44 19.6891C32.4365 19.6117 32.4325 19.5344 32.428 19.4571C32.428 19.4381 32.428 19.4201 32.425 19.3991C32.4194 19.3047 32.4134 19.2104 32.407 19.1161L32.402 19.0501L32.384 18.8101C32.384 18.7871 32.38 18.7641 32.378 18.7411C32.3695 18.6427 32.3605 18.5444 32.351 18.4461C32.351 18.4281 32.348 18.4091 32.346 18.3901L32.319 18.1351C32.3054 18.0067 32.2907 17.8783 32.275 17.7501C32.275 17.7381 32.272 17.7251 32.27 17.7131C32.2586 17.6197 32.2466 17.5264 32.234 17.4331L32.223 17.3501L32.177 17.0281C30.598 6.3731 19.41 8.1041 19.41 8.1041L19.768 10.3941L13 17.1691L13.296 19.7861L15.859 21.2831C15.973 21.0071 16.12 20.7451 16.297 20.5011C17.951 18.6921 21.159 17.2721 22.078 16.9781C22.262 16.9191 22.367 16.8901 22.367 16.8901C17.973 22.2811 18.472 28.4581 18.668 29.9301C18.465 29.9671 18.307 30.2001 18.307 30.4851C18.307 30.7951 18.494 31.0461 18.724 31.0461H20.137C17.787 31.9791 15.922 33.7551 14.948 35.9861C14.7976 36.245 14.6927 36.5277 14.638 36.8221L14.618 36.8871L14.581 37.0081L14.56 37.0831C14.5404 37.1493 14.5224 37.216 14.506 37.2831C14.496 37.3201 14.486 37.3571 14.478 37.3941C14.468 37.4321 14.46 37.4691 14.451 37.5091L14.421 37.6391H13.86C13.6435 37.6353 13.4337 37.7139 13.273 37.8591C13.1962 37.93 13.1346 38.0157 13.092 38.1111C13.0281 38.2536 13.0111 38.4127 13.0434 38.5655C13.0758 38.7182 13.1558 38.8568 13.272 38.9611C13.4311 39.1094 13.6426 39.1886 13.86 39.1811H33.824C34.0405 39.1849 34.2503 39.1063 34.411 38.9611C34.4878 38.8902 34.5493 38.8045 34.592 38.7091C34.6559 38.5666 34.6729 38.4075 34.6406 38.2548C34.6082 38.102 34.5282 37.9634 34.412 37.8591C34.2513 37.7139 34.0415 37.6353 33.825 37.6391L33.817 37.6321L33.816 37.6331Z" fill="#595653"/>
</svg>
